<?xml version="1.0" encoding="iso-8859-1"?>
<!-- Generator: Adobe Illustrator 19.0.0, SVG Export Plug-In . SVG Version: 6.00 Build 0)  -->
<svg version="1.1" id="Capa_1" xmlns="http://www.w3.org/2000/svg" xmlns:xlink="http://www.w3.org/1999/xlink" x="0px" y="0px"
	 viewBox="0 0 512 512" style="enable-background:new 0 0 512 512;" xml:space="preserve">
<path style="fill:#F79548;" d="M346.527,107.052h-6.033V96.85c0-19.863-16.16-36.091-36.023-36.174l-30.999-0.13l-38.113,0.005
	h-17.666c-13.633,0-26.115,4.691-35.146,13.208c-9.044,8.529-14.078,20.337-14.208,33.294h-6.035
	c-14.109,0-25.588,11.479-25.588,25.588v96.889h235.399v-96.889C372.115,118.53,360.636,107.052,346.527,107.052z"/>
<path style="fill:#F27927;" d="M230.844,107.052h6.035c0.13-12.957,5.164-24.765,14.208-33.294
	c8.613-8.122,20.365-12.753,33.258-13.168l-10.874-0.045l-38.113,0.005h-17.666c-13.633,0-26.115,4.691-35.146,13.208
	c-9.044,8.529-14.078,20.337-14.208,33.294h-6.035c-14.109,0-25.588,11.479-25.588,25.588v96.889h68.541v-96.889
	C205.256,118.53,216.735,107.052,230.844,107.052z"/>
<path style="fill:#EFBB97;" d="M149.757,264.655c-14.131,0-25.626-11.496-25.626-25.625c0-14.131,11.496-25.626,25.626-25.626
	h32.507v51.252H149.757z"/>
<rect x="153.194" y="213.402" style="fill:#E5996E;" width="29.069" height="51.252"/>
<path style="fill:#EFBB97;" d="M359.075,264.655c14.131,0,25.626-11.496,25.626-25.625c0-14.131-11.496-25.626-25.626-25.626
	h-32.507v51.252H359.075z"/>
<rect x="324.929" y="213.402" style="fill:#E5996E;" width="29.069" height="51.252"/>
<path style="fill:#086987;" d="M319.385,388.39h-28.945l-73.925,0.961h-38.758l-0.892,0.2
	c-21.614,4.854-37.302,24.479-37.302,46.664v65.472c0,5.686,4.626,10.312,10.312,10.312h207.024c5.686,0,10.312-4.626,10.312-10.312
	v-65.472C367.209,409.844,345.755,388.39,319.385,388.39z"/>
<path style="fill:#066075;" d="M207.059,501.136v-68.974c0-17.78,9.084-33.991,22.945-42.985l-13.489,0.175h-38.758l-0.892,0.2
	c-21.614,4.854-37.302,24.479-37.302,46.664v65.472c0,5.686,4.626,10.312,10.312,10.312h67.497
	C211.685,512,207.059,507.126,207.059,501.136z"/>
<path style="fill:#EFBB97;" d="M216.302,389.685v-35.449h75.196v35.449c0,20.764-16.834,37.598-37.598,37.598l0,0
	C233.136,427.283,216.302,410.45,216.302,389.685z"/>
<path style="fill:#EDA97C;" d="M252.483,389.685v-35.449h-36.181v35.449c0,20.764,16.834,37.598,37.598,37.598l0,0
	c6.559,0,12.723-1.683,18.09-4.634C260.364,416.254,252.483,403.892,252.483,389.685z"/>
<path style="fill:#CACAD8;" d="M150.377,84.516c-1.977,0-3.954-0.754-5.463-2.263l-23.489-23.489H64.88
	c-4.267,0-7.726-3.459-7.726-7.726s3.459-7.726,7.726-7.726h59.745c2.049,0,4.014,0.814,5.463,2.263l25.752,25.752
	c3.017,3.017,3.017,7.909,0,10.925C154.331,83.761,152.355,84.516,150.377,84.516z"/>
<path style="fill:#EFBB97;" d="M253.385,365.661c-47.464,0-86.079-38.615-86.079-86.078v-39.525h172.158v39.525
	C339.464,327.047,300.849,365.661,253.385,365.661z"/>
<path style="fill:#EDA97C;" d="M228.597,279.583v-39.525h-61.29v39.525c0,47.464,38.615,86.078,86.079,86.078
	c10.792,0,21.118-2.015,30.645-5.658C251.657,347.625,228.597,316.255,228.597,279.583z"/>
<path style="fill:#E2425D;" d="M254.415,341.006c-10.508,0-19.057-8.549-19.057-19.057v-4.12c0-10.508,8.549-19.056,19.057-19.056
	c10.508,0,19.057,8.549,19.057,19.056v4.12C273.472,332.458,264.924,341.006,254.415,341.006z"/>
<path style="fill:#D82B50;" d="M254.415,298.773c-7.368,0-13.76,4.211-16.929,10.346c2.603-1.337,5.544-2.105,8.666-2.105
	c10.508,0,19.057,8.549,19.057,19.057v4.12c0,3.14-0.777,6.096-2.127,8.71c6.159-3.161,10.39-9.565,10.39-16.951v-4.12
	C273.472,307.322,264.924,298.773,254.415,298.773z"/>
<path style="fill:#4B4B5B;" d="M233.299,160.742V55.665c0-5.107,4.154-9.261,9.261-9.261h21.65c5.107,0,9.261,4.154,9.261,9.261
	v105.078H233.299z"/>
<path style="fill:#303047;" d="M257.801,141.368c-2.198,0-3.98-1.782-3.98-3.98V55.665c0-5.107,4.154-9.261,9.261-9.261h-20.521
	c-5.115,0-9.261,4.147-9.261,9.261v85.704v19.374h20.521h19.652v-19.374H257.801z"/>
<path style="fill:#4B4B5B;" d="M162.958,241.089c-14.037,0-25.456-11.419-25.456-25.456V185.17
	c0-14.037,11.419-25.456,25.456-25.456h182.915c12.53,0,23.088,8.982,25.105,21.358l0.107,0.658v35.542l0.109,1.03l-0.149,0.983
	c-1.8,12.431-12.622,21.805-25.173,21.805H162.958z"/>
<path style="fill:#303047;" d="M238.787,215.631v-30.463c0-14.037,11.419-25.456,25.456-25.456H162.957
	c-14.037,0-25.456,11.419-25.456,25.456v30.463c0,14.037,11.419,25.456,25.456,25.456h101.286
	C250.207,241.089,238.787,229.668,238.787,215.631z"/>
<path style="fill:#A4E869;" d="M177.674,215.337c-7.952,0-14.421-6.469-14.421-14.421c0-7.952,6.469-14.421,14.421-14.421h153.482
	c7.952,0,14.421,6.469,14.421,14.421c0,7.952-6.469,14.421-14.421,14.421H177.674z"/>
<path style="fill:#ED2E4E;" d="M37.068,88.636c-19.595,0-35.538-15.943-35.538-35.538s15.943-35.538,35.538-35.538
	s35.538,15.943,35.538,35.538S56.664,88.636,37.068,88.636z"/>
<path style="fill:#E0E0E3;" d="M416.1,395.601c-8.215,0-14.898-6.683-14.898-14.898v-58.79c0-8.215,6.683-14.898,14.898-14.898
	h66.001c8.215,0,14.898,6.683,14.898,14.898v58.79c0,8.215-6.683,14.898-14.898,14.898H416.1z"/>
<path style="fill:#CACAD8;" d="M450.125,382.556c-8.215,0-14.898-6.683-14.898-14.898v-58.79c0-0.629,0.052-1.245,0.128-1.854
	h-19.255c-8.215,0-14.898,6.683-14.898,14.898v58.79c0,8.215,6.683,14.898,14.898,14.898H482.1c7.586,0,13.853-5.704,14.77-13.045
	h-46.746V382.556z"/>
<path style="fill:#1470B8;" d="M401.202,338.666v-16.754c0-8.215,6.683-14.898,14.898-14.898h66.001
	c8.215,0,14.898,6.683,14.898,14.898v16.754H401.202z"/>
<path style="fill:#0564A5;" d="M435.226,308.868c0-0.629,0.052-1.245,0.128-1.854h-19.255c-8.215,0-14.898,6.683-14.898,14.898
	v16.754h34.025v-29.798H435.226z"/>
<path style="fill:#05565E;" d="M195.673,512v-62.32c0-4.267-3.459-7.726-7.726-7.726c-4.267,0-7.726,3.459-7.726,7.726V512H195.673z
	"/>
<path style="fill:#066075;" d="M328.609,512v-62.32c0-4.267-3.458-7.726-7.726-7.726s-7.726,3.459-7.726,7.726V512H328.609z"/>
<g>
	<path style="fill:#CACAD8;" d="M111.234,307.014H9.256c-4.267,0-7.726-3.459-7.726-7.726c0-4.267,3.459-7.726,7.726-7.726h101.978
		c4.267,0,7.726,3.459,7.726,7.726C118.96,303.555,115.5,307.014,111.234,307.014z"/>
	<path style="fill:#CACAD8;" d="M65.91,341.006H9.256c-4.267,0-7.726-3.459-7.726-7.726s3.459-7.726,7.726-7.726H65.91
		c4.267,0,7.726,3.459,7.726,7.726S70.177,341.006,65.91,341.006z"/>
	<path style="fill:#CACAD8;" d="M111.234,341.006H93.723c-4.267,0-7.726-3.459-7.726-7.726s3.459-7.726,7.726-7.726h17.511
		c4.267,0,7.726,3.459,7.726,7.726S115.5,341.006,111.234,341.006z"/>
	<path style="fill:#CACAD8;" d="M111.234,374.999H60.76c-4.267,0-7.726-3.459-7.726-7.726c0-4.267,3.459-7.726,7.726-7.726h50.474
		c4.267,0,7.726,3.459,7.726,7.726C118.96,371.54,115.5,374.999,111.234,374.999z"/>
	<path style="fill:#CACAD8;" d="M27.797,374.999H9.255c-4.267,0-7.726-3.459-7.726-7.726c0-4.267,3.459-7.726,7.726-7.726h18.542
		c4.267,0,7.726,3.459,7.726,7.726C35.523,371.54,32.064,374.999,27.797,374.999z"/>
	<path style="fill:#CACAD8;" d="M61.79,408.992H9.256c-4.267,0-7.726-3.459-7.726-7.726s3.459-7.726,7.726-7.726H61.79
		c4.267,0,7.726,3.459,7.726,7.726S66.057,408.992,61.79,408.992z"/>
	<path style="fill:#CACAD8;" d="M109.174,408.992H90.632c-4.267,0-7.726-3.459-7.726-7.726s3.459-7.726,7.726-7.726h18.541
		c4.267,0,7.726,3.459,7.726,7.726S113.44,408.992,109.174,408.992z"/>
</g>
<g>
	<polygon style="fill:#25D887;" points="417.644,53.663 402.153,26.832 417.644,0 448.626,0 464.117,26.832 448.626,53.663 	"/>
	<polygon style="fill:#25D887;" points="463.998,77.355 448.506,50.523 463.998,23.692 494.979,23.692 510.471,50.523 
		494.979,77.355 	"/>
	<polygon style="fill:#25D887;" points="417.644,104.137 402.153,77.306 417.644,50.474 448.626,50.474 464.117,77.306 
		448.626,104.137 	"/>
</g>
<g>
	<polygon style="fill:#0ABF68;" points="427.861,44.392 412.37,17.561 422.509,0 417.644,0 402.153,26.832 417.644,53.663 
		448.626,53.663 453.979,44.392 	"/>
	<polygon style="fill:#0ABF68;" points="474.215,68.084 458.724,41.253 468.863,23.692 463.998,23.692 448.506,50.523 
		463.998,77.355 494.979,77.355 500.333,68.084 	"/>
	<polygon style="fill:#0ABF68;" points="427.861,94.866 412.37,68.035 422.509,50.474 417.644,50.474 402.153,77.306 
		417.644,104.137 448.626,104.137 453.979,94.866 	"/>
</g>
<g>
</g>
<g>
</g>
<g>
</g>
<g>
</g>
<g>
</g>
<g>
</g>
<g>
</g>
<g>
</g>
<g>
</g>
<g>
</g>
<g>
</g>
<g>
</g>
<g>
</g>
<g>
</g>
<g>
</g>
</svg>
